<svg width="1440" height="1548" viewBox="0 0 1440 1548" fill="none" xmlns="http://www.w3.org/2000/svg">
<g clip-path="url(#clip0)">
<path fill-rule="evenodd" clip-rule="evenodd" d="M0 97.3398L32 78.0442C64 58.7486 128 20.1575 192 10.5097C256 0.861886 320 20.1575 384 49.1008C448 78.0442 512 116.635 576 116.635C640 116.635 704 78.0442 768 78.0442C832 78.0442 896 116.635 960 135.931C1024 155.227 1088 155.227 1152 135.931C1216 116.635 1280 78.0442 1344 68.3964C1408 58.7486 1472 78.0442 1536 116.635C1600 155.227 1664 213.113 1728 222.761C1792 232.409 1856 193.818 1888 174.522L1920 155.227V1405H1888C1856 1405 1792 1405 1728 1405C1664 1405 1600 1405 1536 1405C1472 1405 1408 1405 1344 1405C1280 1405 1216 1405 1152 1405C1088 1405 1024 1405 960 1405C896 1405 832 1405 768 1405C704 1405 640 1405 576 1405C512 1405 448 1405 384 1405C320 1405 256 1405 192 1405C128 1405 64 1405 32 1405H0V97.3398Z" fill="url(#paint0_linear)"/>
<path fill-rule="evenodd" clip-rule="evenodd" d="M1920 642.34L1888 623.044C1856 603.749 1792 565.157 1728 555.51C1664 545.862 1600 565.157 1536 594.101C1472 623.044 1408 661.635 1344 661.635C1280 661.635 1216 623.044 1152 623.044C1088 623.044 1024 661.635 960 680.931C896 700.227 832 700.227 768 680.931C704 661.635 640 623.044 576 613.396C512 603.749 448 623.044 384 661.635C320 700.227 256 758.113 192 767.761C128 777.409 64 738.818 32 719.522L0 700.227V1548H32C64 1548 128 1548 192 1548C256 1548 320 1548 384 1548C448 1548 512 1548 576 1548C640 1548 704 1548 768 1548C832 1548 896 1548 960 1548C1024 1548 1088 1548 1152 1548C1216 1548 1280 1548 1344 1548C1408 1548 1472 1548 1536 1548C1600 1548 1664 1548 1728 1548C1792 1548 1856 1548 1888 1548H1920V642.34Z" fill="url(#paint1_linear)"/>
</g>
<defs>
<linearGradient id="paint0_linear" x1="959.999" y1="-233.396" x2="959.999" y2="694.074" gradientUnits="userSpaceOnUse">
<stop stop-color="#540CAB"/>
<stop offset="1" stop-color="#C33BE0"/>
</linearGradient>
<linearGradient id="paint1_linear" x1="960.001" y1="311.604" x2="960.001" y2="1239.07" gradientUnits="userSpaceOnUse">
<stop stop-color="#C33BE0"/>
<stop offset="1" stop-color="#430FA3"/>
</linearGradient>
<clipPath id="clip0">
<rect width="1440" height="1548" fill="white"/>
</clipPath>
</defs>
</svg>
